<svg xmlns="http://www.w3.org/2000/svg" width="680" height="740" viewBox="0 0 680 740"><style>
text{font-family:-apple-system,'Helvetica Neue',Arial,sans-serif}
.t{font-size:14px;fill:#2C2C2A}.ts{font-size:12px;fill:#5F5E5A}.th{font-size:14px;font-weight:500;fill:#2C2C2A}
.arr{stroke:#888780;stroke-width:1.5;fill:none}
.c-gray rect{fill:#F1EFE8;stroke:#5F5E5A;stroke-width:1}.c-gray .th{fill:#444441}.c-gray .ts{fill:#5F5E5A}
.c-teal rect{fill:#E1F5EE;stroke:#0F6E56;stroke-width:1}.c-teal .th{fill:#085041}.c-teal .ts{fill:#0F6E56}
.c-purple rect{fill:#EEEDFE;stroke:#534AB7;stroke-width:1}.c-purple .th{fill:#3C3489}.c-purple .ts{fill:#534AB7}
.c-green rect{fill:#EAF3DE;stroke:#3B6D11;stroke-width:1}.c-green .th{fill:#27500A}.c-green .ts{fill:#3B6D11}
</style><defs><marker id="arrow" viewBox="0 0 10 10" refX="8" refY="5" markerWidth="6" markerHeight="6" orient="auto-start-reverse"><path d="M2 1L8 5L2 9" fill="none" stroke="#888780" stroke-width="1.5" stroke-linecap="round" stroke-linejoin="round"/></marker></defs><rect x="0" y="0" width="680" height="740" fill="#FFFFFF"/><text class="ts" x="41" y="40" text-anchor="start">Offline, built once</text><g class="c-gray"><rect x="41" y="52" width="130" height="56" rx="4"/><text class="th" x="106.0" y="76.0" text-anchor="middle">Code PDF</text><text class="ts" x="106.0" y="94.0" text-anchor="middle">2M words</text></g><g class="c-gray"><rect x="197" y="52" width="130" height="56" rx="4"/><text class="th" x="262.0" y="76.0" text-anchor="middle">Parse</text><text class="ts" x="262.0" y="94.0" text-anchor="middle">~7,000 sections</text></g><g class="c-gray"><rect x="353" y="52" width="130" height="56" rx="4"/><text class="th" x="418.0" y="76.0" text-anchor="middle">Chunk + path</text><text class="ts" x="418.0" y="94.0" text-anchor="middle">19,419 passages</text></g><g class="c-gray"><rect x="509" y="52" width="130" height="56" rx="4"/><text class="th" x="574.0" y="76.0" text-anchor="middle">Two indexes</text><text class="ts" x="574.0" y="94.0" text-anchor="middle">BM25 + vectors</text></g><line x1="171" y1="80" x2="195" y2="80" class="arr" marker-end="url(#arrow)"/><line x1="327" y1="80" x2="351" y2="80" class="arr" marker-end="url(#arrow)"/><line x1="483" y1="80" x2="507" y2="80" class="arr" marker-end="url(#arrow)"/><text class="ts" x="41" y="140" text-anchor="start">Online, per complaint</text><g class="c-gray"><rect x="220" y="152" width="240" height="44" rx="4"/><text class="th" x="340.0" y="170.0" text-anchor="middle">Resident complaint</text><text class="ts" x="340.0" y="188.0" text-anchor="middle">in their own words</text></g><line x1="340" y1="196" x2="340" y2="218" class="arr" marker-end="url(#arrow)"/><g class="c-teal"><rect x="220" y="220" width="240" height="44" rx="4"/><text class="th" x="340.0" y="238.0" text-anchor="middle">LLM rewrite + HyDE</text><text class="ts" x="340.0" y="256.0" text-anchor="middle">into code language</text></g><line x1="340" y1="264" x2="340" y2="276" class="arr" /><line x1="96" y1="276" x2="584" y2="276" class="arr" /><line x1="96" y1="276" x2="96" y2="288" class="arr" marker-end="url(#arrow)"/><line x1="218" y1="276" x2="218" y2="288" class="arr" marker-end="url(#arrow)"/><line x1="340" y1="276" x2="340" y2="288" class="arr" marker-end="url(#arrow)"/><line x1="462" y1="276" x2="462" y2="288" class="arr" marker-end="url(#arrow)"/><line x1="584" y1="276" x2="584" y2="288" class="arr" marker-end="url(#arrow)"/><g class="c-teal"><rect x="41" y="290" width="110" height="50" rx="4"/><text class="th" x="96.0" y="311.0" text-anchor="middle">Dense</text><text class="ts" x="96.0" y="329.0" text-anchor="middle">words ×3</text></g><g class="c-teal"><rect x="163" y="290" width="110" height="50" rx="4"/><text class="th" x="218.0" y="311.0" text-anchor="middle">Dense</text><text class="ts" x="218.0" y="329.0" text-anchor="middle">rewrite ×2</text></g><g class="c-teal"><rect x="285" y="290" width="110" height="50" rx="4"/><text class="th" x="340.0" y="311.0" text-anchor="middle">Dense</text><text class="ts" x="340.0" y="329.0" text-anchor="middle">HyDE ×2</text></g><g class="c-teal"><rect x="407" y="290" width="110" height="50" rx="4"/><text class="th" x="462.0" y="311.0" text-anchor="middle">BM25</text><text class="ts" x="462.0" y="329.0" text-anchor="middle">words ×1</text></g><g class="c-teal"><rect x="529" y="290" width="110" height="50" rx="4"/><text class="th" x="584.0" y="311.0" text-anchor="middle">BM25</text><text class="ts" x="584.0" y="329.0" text-anchor="middle">rewrite ×1</text></g><line x1="96" y1="340" x2="96" y2="354" class="arr" /><line x1="218" y1="340" x2="218" y2="354" class="arr" /><line x1="340" y1="340" x2="340" y2="354" class="arr" /><line x1="462" y1="340" x2="462" y2="354" class="arr" /><line x1="584" y1="340" x2="584" y2="354" class="arr" /><line x1="96" y1="354" x2="584" y2="354" class="arr" /><line x1="340" y1="354" x2="340" y2="370" class="arr" marker-end="url(#arrow)"/><g class="c-teal"><rect x="220" y="372" width="240" height="44" rx="4"/><text class="th" x="340.0" y="390.0" text-anchor="middle">Fuse: weighted RRF</text><text class="ts" x="340.0" y="408.0" text-anchor="middle">top 100 passages</text></g><text class="ts" x="476" y="390" text-anchor="start">Rank 1: 0.37 → 0.53</text><text class="ts" x="476" y="408" text-anchor="start">(adding the rewrite)</text><line x1="340" y1="416" x2="340" y2="438" class="arr" marker-end="url(#arrow)"/><g class="c-gray"><rect x="220" y="440" width="240" height="44" rx="4"/><text class="th" x="340.0" y="458.0" text-anchor="middle">Top 30 sections</text><text class="ts" x="340.0" y="476.0" text-anchor="middle">R@30 = 0.91</text></g><line x1="340" y1="484" x2="340" y2="506" class="arr" marker-end="url(#arrow)"/><g class="c-purple"><rect x="220" y="508" width="240" height="44" rx="4"/><text class="th" x="340.0" y="526.0" text-anchor="middle">LambdaMART</text><text class="ts" x="340.0" y="544.0" text-anchor="middle">41 features · 0.5 ms</text></g><text class="ts" x="476" y="526" text-anchor="start">Rank 1: → 0.83</text><text class="ts" x="476" y="544" text-anchor="start">(locked test 1)</text><line x1="340" y1="552" x2="340" y2="574" class="arr" marker-end="url(#arrow)"/><g class="c-purple"><rect x="220" y="576" width="240" height="44" rx="4"/><text class="th" x="340.0" y="594.0" text-anchor="middle">LLM reorders top 10</text><text class="ts" x="340.0" y="612.0" text-anchor="middle">optional last step</text></g><text class="ts" x="476" y="594" text-anchor="start">Rank 1: 0.82 → 0.93</text><text class="ts" x="476" y="612" text-anchor="start">(locked test 2)</text><line x1="340" y1="620" x2="340" y2="642" class="arr" marker-end="url(#arrow)"/><g class="c-gray"><rect x="220" y="644" width="240" height="44" rx="4"/><text class="th" x="340.0" y="662.0" text-anchor="middle">Top 3 sections</text><text class="ts" x="340.0" y="680.0" text-anchor="middle">to the assistant</text></g><text class="ts" x="41" y="716" text-anchor="start">Right side: rank 1 on locked tests = how often the top result is relevant.</text></svg>